<svg width="76" height="42" viewBox="0 0 95 95" fill="none" xmlns="http://www.w3.org/2000/svg">
<path d="M83.125 55.4167V75.2083C83.125 77.308 82.2909 79.3216 80.8063 80.8063C79.3216 82.2909 77.308 83.125 75.2083 83.125H19.7917C17.692 83.125 15.6784 82.2909 14.1937 80.8063C12.7091 79.3216 11.875 77.308 11.875 75.2083V19.7917C11.875 17.692 12.7091 15.6784 14.1937 14.1937C15.6784 12.7091 17.692 11.875 19.7917 11.875H39.5833V19.7917H19.7917V75.2083H75.2083V55.4167H83.125Z" fill="black"/>
<path d="M83.125 27.7083H67.2917V11.875H59.375V27.7083H43.5417V35.625H59.375V51.4583H67.2917V35.625H83.125V27.7083Z" fill="black"/>
</svg>
