<svg width="81" height="42" viewBox="0 0 81 80" fill="none" xmlns="http://www.w3.org/2000/svg">
<path d="M44 0.0354004V8.03123C61.56 10.1687 74 25.9625 71.84 43.3396C70 57.7479 58.56 69.1875 44 70.8896V78.8062C66 76.6291 82 57.3125 79.8 35.5416C78 16.7396 62.92 1.89582 44 0.0354004ZM36 0.15415C28.2 0.906233 20.76 3.87498 14.68 8.86248L20.4 14.7208C24.88 11.1583 30.28 8.86248 36 8.07082V0.15415ZM9.04 14.4437C4.03862 20.4499 0.960809 27.7955 0.200001 35.5416H8.2C8.96 29.9208 11.2 24.5771 14.76 20.1041L9.04 14.4437ZM0.240001 43.4583C1.04 51.2166 4.12 58.5396 9.08 64.5562L14.76 58.8958C11.2277 54.4213 8.97582 49.0894 8.24 43.4583H0.240001ZM20.4 64.7146L14.68 70.1375C20.7391 75.1357 28.1571 78.2482 36 79.0833V71.1666C30.3096 70.4385 24.9216 68.21 20.4 64.7146ZM42 19.7083V40.4896L60 51.0583L57 55.9271L36 43.4583V19.7083H42Z" fill="black"/>
</svg>
